STARTFONT 2.1
FONT -Patrick J. Thomas-mono_size_1_design_2-Normal-R-Normal-Regular-7-70-96-96-P-50-ISO8859-1
SIZE 7 96 96
FONTBOUNDINGBOX 5 9 0 -2
STARTPROPERTIES 31
FAMILY_NAME "mono_size_1_design_2"
DEFAULT_CHAR -1
FOUNDRY "Patrick J. Thomas"
COPYRIGHT "Copyright (c) 2025, Patrick J. Thomas. All rights reserved."
CODEPAGE "MS Windows 1252 Western (ANSI)"
ENC_MODE 2
DESIGNER "Patrick J. Thomas"
CREATION_YEAR 2025
WEIGHT_NAME "Normal"
SLANT "R"
SETWIDTH_NAME "Normal"
ADD_STYLE_NAME "Regular"
SPACING "P"
WEIGHT 400
FACE_NAME "mono_size_1_design_2"
HI_VERSION 1
MENU_NAME "mono_size_1_design_2"
FONT_NAME "mono_size_1_design_2"
FONTNAME_REGISTRY "-"
CHARSET_REGISTRY "ISO8859"
CHARSET_ENCODING "1"
BREAK_CHAR 32
PIXEL_SIZE 10
POINT_SIZE 70
FONT_ASCENT 7
FONT_DESCENT 3
RESOLUTION_X 96
RESOLUTION_Y 96
AVERAGE_WIDTH 50
X_HEIGHT 5
CAP_HEIGHT 7
ENDPROPERTIES
CHARS 256
STARTCHAR uni0000.uni0000
ENCODING 0
SWIDTH 3125 0
DWIDTH 5 0
BBX 0 0 0 0
BITMAP
ENDCHAR
STARTCHAR uni0001.uni0001
ENCODING 1
SWIDTH 3125 0
DWIDTH 5 0
BBX 0 0 0 0
BITMAP
ENDCHAR
STARTCHAR uni0002.uni0002
ENCODING 2
SWIDTH 3125 0
DWIDTH 5 0
BBX 0 0 0 0
BITMAP
ENDCHAR
STARTCHAR uni0003.uni0003
ENCODING 3
SWIDTH 3125 0
DWIDTH 5 0
BBX 0 0 0 0
BITMAP
ENDCHAR
STARTCHAR uni0004.uni0004
ENCODING 4
SWIDTH 3125 0
DWIDTH 5 0
BBX 0 0 0 0
BITMAP
ENDCHAR
STARTCHAR uni0005.uni0005
ENCODING 5
SWIDTH 3125 0
DWIDTH 5 0
BBX 0 0 0 0
BITMAP
ENDCHAR
STARTCHAR uni0006.uni0006
ENCODING 6
SWIDTH 3125 0
DWIDTH 5 0
BBX 0 0 0 0
BITMAP
ENDCHAR
STARTCHAR uni0007.uni0007
ENCODING 7
SWIDTH 3125 0
DWIDTH 5 0
BBX 0 0 0 0
BITMAP
ENDCHAR
STARTCHAR uni0008.uni0008
ENCODING 8
SWIDTH 3125 0
DWIDTH 5 0
BBX 0 0 0 0
BITMAP
ENDCHAR
STARTCHAR uni0009.uni0009
ENCODING 9
SWIDTH 3125 0
DWIDTH 5 0
BBX 0 0 0 0
BITMAP
ENDCHAR
STARTCHAR uni000A.uni000A
ENCODING 10
SWIDTH 3125 0
DWIDTH 5 0
BBX 0 0 0 0
BITMAP
ENDCHAR
STARTCHAR uni000B.uni000B
ENCODING 11
SWIDTH 3125 0
DWIDTH 5 0
BBX 0 0 0 0
BITMAP
ENDCHAR
STARTCHAR uni000C.uni000C
ENCODING 12
SWIDTH 3125 0
DWIDTH 5 0
BBX 0 0 0 0
BITMAP
ENDCHAR
STARTCHAR uni000D.uni000D
ENCODING 13
SWIDTH 3125 0
DWIDTH 5 0
BBX 0 0 0 0
BITMAP
ENDCHAR
STARTCHAR uni000E.uni000E
ENCODING 14
SWIDTH 3125 0
DWIDTH 5 0
BBX 0 0 0 0
BITMAP
ENDCHAR
STARTCHAR uni000F.uni000F
ENCODING 15
SWIDTH 3125 0
DWIDTH 5 0
BBX 0 0 0 0
BITMAP
ENDCHAR
STARTCHAR uni0010.uni0010
ENCODING 16
SWIDTH 3125 0
DWIDTH 5 0
BBX 0 0 0 0
BITMAP
ENDCHAR
STARTCHAR uni0011.uni0011
ENCODING 17
SWIDTH 3125 0
DWIDTH 5 0
BBX 0 0 0 0
BITMAP
ENDCHAR
STARTCHAR uni0012.uni0012
ENCODING 18
SWIDTH 3125 0
DWIDTH 5 0
BBX 0 0 0 0
BITMAP
ENDCHAR
STARTCHAR uni0013.uni0013
ENCODING 19
SWIDTH 3125 0
DWIDTH 5 0
BBX 0 0 0 0
BITMAP
ENDCHAR
STARTCHAR uni0014.uni0014
ENCODING 20
SWIDTH 3125 0
DWIDTH 5 0
BBX 0 0 0 0
BITMAP
ENDCHAR
STARTCHAR uni0015.uni0015
ENCODING 21
SWIDTH 3125 0
DWIDTH 5 0
BBX 0 0 0 0
BITMAP
ENDCHAR
STARTCHAR uni0016.uni0016
ENCODING 22
SWIDTH 3125 0
DWIDTH 5 0
BBX 0 0 0 0
BITMAP
ENDCHAR
STARTCHAR uni0017.uni0017
ENCODING 23
SWIDTH 3125 0
DWIDTH 5 0
BBX 0 0 0 0
BITMAP
ENDCHAR
STARTCHAR uni0018.uni0018
ENCODING 24
SWIDTH 3125 0
DWIDTH 5 0
BBX 0 0 0 0
BITMAP
ENDCHAR
STARTCHAR uni0019.uni0019
ENCODING 25
SWIDTH 3125 0
DWIDTH 5 0
BBX 0 0 0 0
BITMAP
ENDCHAR
STARTCHAR uni001A.uni001A
ENCODING 26
SWIDTH 3125 0
DWIDTH 5 0
BBX 0 0 0 0
BITMAP
ENDCHAR
STARTCHAR uni001B.uni001B
ENCODING 27
SWIDTH 3125 0
DWIDTH 5 0
BBX 0 0 0 0
BITMAP
ENDCHAR
STARTCHAR uni001C.uni001C
ENCODING 28
SWIDTH 3125 0
DWIDTH 5 0
BBX 0 0 0 0
BITMAP
ENDCHAR
STARTCHAR uni001D.uni001D
ENCODING 29
SWIDTH 3125 0
DWIDTH 5 0
BBX 0 0 0 0
BITMAP
ENDCHAR
STARTCHAR uni001E.uni001E
ENCODING 30
SWIDTH 3125 0
DWIDTH 5 0
BBX 0 0 0 0
BITMAP
ENDCHAR
STARTCHAR uni001F.uni001F
ENCODING 31
SWIDTH 3125 0
DWIDTH 5 0
BBX 0 0 0 0
BITMAP
ENDCHAR
STARTCHAR space.uni0020
ENCODING 32
SWIDTH 3125 0
DWIDTH 5 0
BBX 0 0 0 0
BITMAP
ENDCHAR
STARTCHAR exclam.uni0021
ENCODING 33
SWIDTH 3125 0
DWIDTH 5 0
BBX 1 7 2 0
BITMAP
8000
8000
8000
8000
8000
0000
8000
ENDCHAR
STARTCHAR quotedbl.uni0022
ENCODING 34
SWIDTH 3125 0
DWIDTH 5 0
BBX 3 3 1 4
BITMAP
A000
A000
A000
ENDCHAR
STARTCHAR numbersign.uni0023
ENCODING 35
SWIDTH 3125 0
DWIDTH 5 0
BBX 5 5 0 1
BITMAP
5000
F800
5000
F800
5000
ENDCHAR
STARTCHAR dollar.uni0024
ENCODING 36
SWIDTH 3125 0
DWIDTH 5 0
BBX 5 8 0 -1
BITMAP
2000
7000
A000
F000
2800
A800
7000
2000
ENDCHAR
STARTCHAR percent.uni0025
ENCODING 37
SWIDTH 3125 0
DWIDTH 5 0
BBX 5 5 0 1
BITMAP
8800
1000
2000
4000
8800
ENDCHAR
STARTCHAR ampersand.uni0026
ENCODING 38
SWIDTH 3125 0
DWIDTH 5 0
BBX 5 7 0 0
BITMAP
6000
9000
8000
4000
A800
9000
6800
ENDCHAR
STARTCHAR quotesingle.uni0027
ENCODING 39
SWIDTH 3125 0
DWIDTH 5 0
BBX 1 3 2 4
BITMAP
8000
8000
8000
ENDCHAR
STARTCHAR parenleft.uni0028
ENCODING 40
SWIDTH 3125 0
DWIDTH 5 0
BBX 3 9 1 -2
BITMAP
2000
4000
8000
8000
8000
8000
8000
4000
2000
ENDCHAR
STARTCHAR parenright.uni0029
ENCODING 41
SWIDTH 3125 0
DWIDTH 5 0
BBX 3 9 1 -2
BITMAP
8000
4000
2000
2000
2000
2000
2000
4000
8000
ENDCHAR
STARTCHAR asterisk.uni002A
ENCODING 42
SWIDTH 3125 0
DWIDTH 5 0
BBX 5 5 0 1
BITMAP
2000
A800
7000
A800
2000
ENDCHAR
STARTCHAR plus.uni002B
ENCODING 43
SWIDTH 3125 0
DWIDTH 5 0
BBX 5 5 0 1
BITMAP
2000
2000
F800
2000
2000
ENDCHAR
STARTCHAR comma.uni002C
ENCODING 44
SWIDTH 3125 0
DWIDTH 5 0
BBX 3 3 1 -2
BITMAP
2000
4000
8000
ENDCHAR
STARTCHAR hyphen.uni002D
ENCODING 45
SWIDTH 3125 0
DWIDTH 5 0
BBX 5 1 0 3
BITMAP
F800
ENDCHAR
STARTCHAR period.uni002E
ENCODING 46
SWIDTH 3125 0
DWIDTH 5 0
BBX 1 1 2 0
BITMAP
8000
ENDCHAR
STARTCHAR slash.uni002F
ENCODING 47
SWIDTH 3125 0
DWIDTH 5 0
BBX 5 5 0 1
BITMAP
0800
1000
2000
4000
8000
ENDCHAR
STARTCHAR zero.uni0030
ENCODING 48
SWIDTH 3125 0
DWIDTH 5 0
BBX 5 7 0 0
BITMAP
7000
8800
9800
A800
C800
8800
7000
ENDCHAR
STARTCHAR one.uni0031
ENCODING 49
SWIDTH 3125 0
DWIDTH 5 0
BBX 3 7 1 0
BITMAP
2000
6000
A000
2000
2000
2000
2000
ENDCHAR
STARTCHAR two.uni0032
ENCODING 50
SWIDTH 3125 0
DWIDTH 5 0
BBX 5 7 0 0
BITMAP
7000
8800
0800
1000
2000
4000
F800
ENDCHAR
STARTCHAR three.uni0033
ENCODING 51
SWIDTH 3125 0
DWIDTH 5 0
BBX 5 7 0 0
BITMAP
7000
8800
0800
3000
0800
8800
7000
ENDCHAR
STARTCHAR four.uni0034
ENCODING 52
SWIDTH 3125 0
DWIDTH 5 0
BBX 5 7 0 0
BITMAP
3000
5000
9000
F800
1000
1000
1000
ENDCHAR
STARTCHAR five.uni0035
ENCODING 53
SWIDTH 3125 0
DWIDTH 5 0
BBX 5 7 0 0
BITMAP
F800
8000
8000
F000
0800
8800
7000
ENDCHAR
STARTCHAR six.uni0036
ENCODING 54
SWIDTH 3125 0
DWIDTH 5 0
BBX 5 7 0 0
BITMAP
7000
8800
8000
F000
8800
8800
7000
ENDCHAR
STARTCHAR seven.uni0037
ENCODING 55
SWIDTH 3125 0
DWIDTH 5 0
BBX 5 7 0 0
BITMAP
F800
0800
0800
1000
2000
2000
2000
ENDCHAR
STARTCHAR eight.uni0038
ENCODING 56
SWIDTH 3125 0
DWIDTH 5 0
BBX 5 7 0 0
BITMAP
7000
8800
8800
7000
8800
8800
7000
ENDCHAR
STARTCHAR nine.uni0039
ENCODING 57
SWIDTH 3125 0
DWIDTH 5 0
BBX 5 7 0 0
BITMAP
7000
8800
8800
7800
0800
8800
7000
ENDCHAR
STARTCHAR colon.uni003A
ENCODING 58
SWIDTH 3125 0
DWIDTH 5 0
BBX 1 6 2 0
BITMAP
8000
0000
0000
0000
0000
8000
ENDCHAR
STARTCHAR semicolon.uni003B
ENCODING 59
SWIDTH 3125 0
DWIDTH 5 0
BBX 3 8 1 -2
BITMAP
2000
0000
0000
0000
0000
2000
4000
8000
ENDCHAR
STARTCHAR less.uni003C
ENCODING 60
SWIDTH 3125 0
DWIDTH 5 0
BBX 3 5 1 1
BITMAP
2000
4000
8000
4000
2000
ENDCHAR
STARTCHAR equal.uni003D
ENCODING 61
SWIDTH 3125 0
DWIDTH 5 0
BBX 5 3 0 2
BITMAP
F800
0000
F800
ENDCHAR
STARTCHAR greater.uni003E
ENCODING 62
SWIDTH 3125 0
DWIDTH 5 0
BBX 3 5 1 1
BITMAP
8000
4000
2000
4000
8000
ENDCHAR
STARTCHAR question.uni003F
ENCODING 63
SWIDTH 3125 0
DWIDTH 5 0
BBX 5 7 0 0
BITMAP
7000
8800
0800
1000
2000
0000
2000
ENDCHAR
STARTCHAR at.uni0040
ENCODING 64
SWIDTH 3125 0
DWIDTH 5 0
BBX 5 7 0 0
BITMAP
7000
8800
B800
A800
B800
8000
7800
ENDCHAR
STARTCHAR A.uni0041
ENCODING 65
SWIDTH 3125 0
DWIDTH 5 0
BBX 5 7 0 0
BITMAP
7000
8800
8800
F800
8800
8800
8800
ENDCHAR
STARTCHAR B.uni0042
ENCODING 66
SWIDTH 3125 0
DWIDTH 5 0
BBX 5 7 0 0
BITMAP
F000
8800
8800
F000
8800
8800
F000
ENDCHAR
STARTCHAR C.uni0043
ENCODING 67
SWIDTH 3125 0
DWIDTH 5 0
BBX 5 7 0 0
BITMAP
7000
8800
8000
8000
8000
8800
7000
ENDCHAR
STARTCHAR D.uni0044
ENCODING 68
SWIDTH 3125 0
DWIDTH 5 0
BBX 5 7 0 0
BITMAP
F000
8800
8800
8800
8800
8800
F000
ENDCHAR
STARTCHAR E.uni0045
ENCODING 69
SWIDTH 3125 0
DWIDTH 5 0
BBX 5 7 0 0
BITMAP
F800
8000
8000
F000
8000
8000
F800
ENDCHAR
STARTCHAR F.uni0046
ENCODING 70
SWIDTH 3125 0
DWIDTH 5 0
BBX 5 7 0 0
BITMAP
F800
8000
8000
F000
8000
8000
8000
ENDCHAR
STARTCHAR G.uni0047
ENCODING 71
SWIDTH 3125 0
DWIDTH 5 0
BBX 5 7 0 0
BITMAP
7000
8800
8000
9800
8800
8800
7000
ENDCHAR
STARTCHAR H.uni0048
ENCODING 72
SWIDTH 3125 0
DWIDTH 5 0
BBX 5 7 0 0
BITMAP
8800
8800
8800
F800
8800
8800
8800
ENDCHAR
STARTCHAR I.uni0049
ENCODING 73
SWIDTH 3125 0
DWIDTH 5 0
BBX 5 7 0 0
BITMAP
F800
2000
2000
2000
2000
2000
F800
ENDCHAR
STARTCHAR J.uni004A
ENCODING 74
SWIDTH 3125 0
DWIDTH 5 0
BBX 5 7 0 0
BITMAP
0800
0800
0800
0800
8800
8800
7000
ENDCHAR
STARTCHAR K.uni004B
ENCODING 75
SWIDTH 3125 0
DWIDTH 5 0
BBX 5 7 0 0
BITMAP
8800
9000
A000
C000
A000
9000
8800
ENDCHAR
STARTCHAR L.uni004C
ENCODING 76
SWIDTH 3125 0
DWIDTH 5 0
BBX 5 7 0 0
BITMAP
8000
8000
8000
8000
8000
8000
F800
ENDCHAR
STARTCHAR M.uni004D
ENCODING 77
SWIDTH 3125 0
DWIDTH 5 0
BBX 5 7 0 0
BITMAP
8800
D800
A800
8800
8800
8800
8800
ENDCHAR
STARTCHAR N.uni004E
ENCODING 78
SWIDTH 3125 0
DWIDTH 5 0
BBX 5 7 0 0
BITMAP
8800
C800
A800
9800
8800
8800
8800
ENDCHAR
STARTCHAR O.uni004F
ENCODING 79
SWIDTH 3125 0
DWIDTH 5 0
BBX 5 7 0 0
BITMAP
7000
8800
8800
8800
8800
8800
7000
ENDCHAR
STARTCHAR P.uni0050
ENCODING 80
SWIDTH 3125 0
DWIDTH 5 0
BBX 5 7 0 0
BITMAP
F000
8800
8800
F000
8000
8000
8000
ENDCHAR
STARTCHAR Q.uni0051
ENCODING 81
SWIDTH 3125 0
DWIDTH 5 0
BBX 5 9 0 -2
BITMAP
7000
8800
8800
8800
8800
8800
7000
0800
0800
ENDCHAR
STARTCHAR R.uni0052
ENCODING 82
SWIDTH 3125 0
DWIDTH 5 0
BBX 5 7 0 0
BITMAP
F000
8800
8800
F000
8800
8800
8800
ENDCHAR
STARTCHAR S.uni0053
ENCODING 83
SWIDTH 3125 0
DWIDTH 5 0
BBX 5 7 0 0
BITMAP
7000
8800
8000
7000
0800
8800
7000
ENDCHAR
STARTCHAR T.uni0054
ENCODING 84
SWIDTH 3125 0
DWIDTH 5 0
BBX 5 7 0 0
BITMAP
F800
2000
2000
2000
2000
2000
2000
ENDCHAR
STARTCHAR U.uni0055
ENCODING 85
SWIDTH 3125 0
DWIDTH 5 0
BBX 5 7 0 0
BITMAP
8800
8800
8800
8800
8800
8800
7000
ENDCHAR
STARTCHAR V.uni0056
ENCODING 86
SWIDTH 3125 0
DWIDTH 5 0
BBX 5 7 0 0
BITMAP
8800
8800
8800
8800
8800
5000
2000
ENDCHAR
STARTCHAR W.uni0057
ENCODING 87
SWIDTH 3125 0
DWIDTH 5 0
BBX 5 7 0 0
BITMAP
8800
8800
8800
8800
A800
D800
8800
ENDCHAR
STARTCHAR X.uni0058
ENCODING 88
SWIDTH 3125 0
DWIDTH 5 0
BBX 5 7 0 0
BITMAP
8800
8800
5000
2000
5000
8800
8800
ENDCHAR
STARTCHAR Y.uni0059
ENCODING 89
SWIDTH 3125 0
DWIDTH 5 0
BBX 5 7 0 0
BITMAP
8800
8800
5000
2000
2000
2000
2000
ENDCHAR
STARTCHAR Z.uni005A
ENCODING 90
SWIDTH 3125 0
DWIDTH 5 0
BBX 5 7 0 0
BITMAP
F800
0800
1000
2000
4000
8000
F800
ENDCHAR
STARTCHAR bracketleft.uni005B
ENCODING 91
SWIDTH 3125 0
DWIDTH 5 0
BBX 3 9 1 -2
BITMAP
E000
8000
8000
8000
8000
8000
8000
8000
E000
ENDCHAR
STARTCHAR backslash.uni005C
ENCODING 92
SWIDTH 3125 0
DWIDTH 5 0
BBX 5 5 0 1
BITMAP
8000
4000
2000
1000
0800
ENDCHAR
STARTCHAR bracketright.uni005D
ENCODING 93
SWIDTH 3125 0
DWIDTH 5 0
BBX 3 9 1 -2
BITMAP
E000
2000
2000
2000
2000
2000
2000
2000
E000
ENDCHAR
STARTCHAR asciicircum.uni005E
ENCODING 94
SWIDTH 3125 0
DWIDTH 5 0
BBX 3 2 1 5
BITMAP
4000
A000
ENDCHAR
STARTCHAR underscore.uni005F
ENCODING 95
SWIDTH 3125 0
DWIDTH 5 0
BBX 5 1 0 0
BITMAP
F800
ENDCHAR
STARTCHAR grave.uni0060
ENCODING 96
SWIDTH 3125 0
DWIDTH 5 0
BBX 3 3 1 4
BITMAP
8000
4000
2000
ENDCHAR
STARTCHAR a.uni0061
ENCODING 97
SWIDTH 3125 0
DWIDTH 5 0
BBX 5 5 0 0
BITMAP
7000
0800
7800
8800
7800
ENDCHAR
STARTCHAR b.uni0062
ENCODING 98
SWIDTH 3125 0
DWIDTH 5 0
BBX 5 7 0 0
BITMAP
8000
8000
F000
8800
8800
8800
F000
ENDCHAR
STARTCHAR c.uni0063
ENCODING 99
SWIDTH 3125 0
DWIDTH 5 0
BBX 5 5 0 0
BITMAP
7000
8800
8000
8800
7000
ENDCHAR
STARTCHAR d.uni0064
ENCODING 100
SWIDTH 3125 0
DWIDTH 5 0
BBX 5 7 0 0
BITMAP
0800
0800
7800
8800
8800
8800
7800
ENDCHAR
STARTCHAR e.uni0065
ENCODING 101
SWIDTH 3125 0
DWIDTH 5 0
BBX 5 5 0 0
BITMAP
7000
8800
F800
8000
7800
ENDCHAR
STARTCHAR f.uni0066
ENCODING 102
SWIDTH 3125 0
DWIDTH 5 0
BBX 4 7 0 0
BITMAP
3000
4000
F000
4000
4000
4000
4000
ENDCHAR
STARTCHAR g.uni0067
ENCODING 103
SWIDTH 3125 0
DWIDTH 5 0
BBX 5 7 0 -2
BITMAP
7000
8800
8800
8800
7800
0800
7000
ENDCHAR
STARTCHAR h.uni0068
ENCODING 104
SWIDTH 3125 0
DWIDTH 5 0
BBX 5 7 0 0
BITMAP
8000
8000
F000
8800
8800
8800
8800
ENDCHAR
STARTCHAR i.uni0069
ENCODING 105
SWIDTH 3125 0
DWIDTH 5 0
BBX 5 7 0 0
BITMAP
2000
0000
E000
2000
2000
2000
F800
ENDCHAR
STARTCHAR j.uni006A
ENCODING 106
SWIDTH 3125 0
DWIDTH 5 0
BBX 4 9 0 -2
BITMAP
1000
0000
7000
1000
1000
1000
1000
1000
E000
ENDCHAR
STARTCHAR k.uni006B
ENCODING 107
SWIDTH 3125 0
DWIDTH 5 0
BBX 4 7 0 0
BITMAP
8000
8000
9000
A000
C000
A000
9000
ENDCHAR
STARTCHAR l.uni006C
ENCODING 108
SWIDTH 3125 0
DWIDTH 5 0
BBX 5 7 0 0
BITMAP
E000
2000
2000
2000
2000
2000
F800
ENDCHAR
STARTCHAR m.uni006D
ENCODING 109
SWIDTH 3125 0
DWIDTH 5 0
BBX 5 5 0 0
BITMAP
F000
A800
A800
A800
A800
ENDCHAR
STARTCHAR n.uni006E
ENCODING 110
SWIDTH 3125 0
DWIDTH 5 0
BBX 5 5 0 0
BITMAP
F000
8800
8800
8800
8800
ENDCHAR
STARTCHAR o.uni006F
ENCODING 111
SWIDTH 3125 0
DWIDTH 5 0
BBX 5 5 0 0
BITMAP
7000
8800
8800
8800
7000
ENDCHAR
STARTCHAR p.uni0070
ENCODING 112
SWIDTH 3125 0
DWIDTH 5 0
BBX 5 7 0 -2
BITMAP
F000
8800
8800
8800
F000
8000
8000
ENDCHAR
STARTCHAR q.uni0071
ENCODING 113
SWIDTH 3125 0
DWIDTH 5 0
BBX 5 7 0 -2
BITMAP
7800
8800
8800
8800
7800
0800
0800
ENDCHAR
STARTCHAR r.uni0072
ENCODING 114
SWIDTH 3125 0
DWIDTH 5 0
BBX 5 5 0 0
BITMAP
F000
8800
8000
8000
8000
ENDCHAR
STARTCHAR s.uni0073
ENCODING 115
SWIDTH 3125 0
DWIDTH 5 0
BBX 5 5 0 0
BITMAP
7000
8000
F800
0800
F000
ENDCHAR
STARTCHAR t.uni0074
ENCODING 116
SWIDTH 3125 0
DWIDTH 5 0
BBX 5 7 0 0
BITMAP
2000
2000
F800
2000
2000
2000
2000
ENDCHAR
STARTCHAR u.uni0075
ENCODING 117
SWIDTH 3125 0
DWIDTH 5 0
BBX 5 5 0 0
BITMAP
8800
8800
8800
8800
7000
ENDCHAR
STARTCHAR v.uni0076
ENCODING 118
SWIDTH 3125 0
DWIDTH 5 0
BBX 5 5 0 0
BITMAP
8800
8800
8800
5000
2000
ENDCHAR
STARTCHAR w.uni0077
ENCODING 119
SWIDTH 3125 0
DWIDTH 5 0
BBX 5 5 0 0
BITMAP
A800
A800
A800
A800
5000
ENDCHAR
STARTCHAR x.uni0078
ENCODING 120
SWIDTH 3125 0
DWIDTH 5 0
BBX 5 5 0 0
BITMAP
8800
5000
2000
5000
8800
ENDCHAR
STARTCHAR y.uni0079
ENCODING 121
SWIDTH 3125 0
DWIDTH 5 0
BBX 5 7 0 -2
BITMAP
8800
8800
8800
8800
7800
0800
7000
ENDCHAR
STARTCHAR z.uni007A
ENCODING 122
SWIDTH 3125 0
DWIDTH 5 0
BBX 5 5 0 0
BITMAP
F800
1000
2000
4000
F800
ENDCHAR
STARTCHAR braceleft.uni007B
ENCODING 123
SWIDTH 3125 0
DWIDTH 5 0
BBX 3 9 1 -2
BITMAP
2000
4000
4000
4000
8000
4000
4000
4000
2000
ENDCHAR
STARTCHAR bar.uni007C
ENCODING 124
SWIDTH 3125 0
DWIDTH 5 0
BBX 1 9 2 -2
BITMAP
8000
8000
8000
8000
8000
8000
8000
8000
8000
ENDCHAR
STARTCHAR braceright.uni007D
ENCODING 125
SWIDTH 3125 0
DWIDTH 5 0
BBX 3 9 1 -2
BITMAP
8000
4000
4000
4000
2000
4000
4000
4000
8000
ENDCHAR
STARTCHAR asciitilde.uni007E
ENCODING 126
SWIDTH 3125 0
DWIDTH 5 0
BBX 5 3 0 4
BITMAP
4000
A800
1000
ENDCHAR
STARTCHAR uni007F.uni007F
ENCODING 127
SWIDTH 3125 0
DWIDTH 5 0
BBX 0 0 0 0
BITMAP
ENDCHAR
STARTCHAR uni0080.uni0080
ENCODING 128
SWIDTH 3125 0
DWIDTH 5 0
BBX 0 0 0 0
BITMAP
ENDCHAR
STARTCHAR uni0081.uni0081
ENCODING 129
SWIDTH 3125 0
DWIDTH 5 0
BBX 0 0 0 0
BITMAP
ENDCHAR
STARTCHAR uni0082.uni0082
ENCODING 130
SWIDTH 3125 0
DWIDTH 5 0
BBX 0 0 0 0
BITMAP
ENDCHAR
STARTCHAR uni0083.uni0083
ENCODING 131
SWIDTH 3125 0
DWIDTH 5 0
BBX 0 0 0 0
BITMAP
ENDCHAR
STARTCHAR uni0084.uni0084
ENCODING 132
SWIDTH 3125 0
DWIDTH 5 0
BBX 0 0 0 0
BITMAP
ENDCHAR
STARTCHAR uni0085.uni0085
ENCODING 133
SWIDTH 3125 0
DWIDTH 5 0
BBX 0 0 0 0
BITMAP
ENDCHAR
STARTCHAR uni0086.uni0086
ENCODING 134
SWIDTH 3125 0
DWIDTH 5 0
BBX 0 0 0 0
BITMAP
ENDCHAR
STARTCHAR uni0087.uni0087
ENCODING 135
SWIDTH 3125 0
DWIDTH 5 0
BBX 0 0 0 0
BITMAP
ENDCHAR
STARTCHAR uni0088.uni0088
ENCODING 136
SWIDTH 3125 0
DWIDTH 5 0
BBX 0 0 0 0
BITMAP
ENDCHAR
STARTCHAR uni0089.uni0089
ENCODING 137
SWIDTH 3125 0
DWIDTH 5 0
BBX 0 0 0 0
BITMAP
ENDCHAR
STARTCHAR uni008A.uni008A
ENCODING 138
SWIDTH 3125 0
DWIDTH 5 0
BBX 0 0 0 0
BITMAP
ENDCHAR
STARTCHAR uni008B.uni008B
ENCODING 139
SWIDTH 3125 0
DWIDTH 5 0
BBX 0 0 0 0
BITMAP
ENDCHAR
STARTCHAR uni008C.uni008C
ENCODING 140
SWIDTH 3125 0
DWIDTH 5 0
BBX 0 0 0 0
BITMAP
ENDCHAR
STARTCHAR uni008D.uni008D
ENCODING 141
SWIDTH 3125 0
DWIDTH 5 0
BBX 0 0 0 0
BITMAP
ENDCHAR
STARTCHAR uni008E.uni008E
ENCODING 142
SWIDTH 3125 0
DWIDTH 5 0
BBX 0 0 0 0
BITMAP
ENDCHAR
STARTCHAR uni008F.uni008F
ENCODING 143
SWIDTH 3125 0
DWIDTH 5 0
BBX 0 0 0 0
BITMAP
ENDCHAR
STARTCHAR uni0090.uni0090
ENCODING 144
SWIDTH 3125 0
DWIDTH 5 0
BBX 0 0 0 0
BITMAP
ENDCHAR
STARTCHAR uni0091.uni0091
ENCODING 145
SWIDTH 3125 0
DWIDTH 5 0
BBX 0 0 0 0
BITMAP
ENDCHAR
STARTCHAR uni0092.uni0092
ENCODING 146
SWIDTH 3125 0
DWIDTH 5 0
BBX 0 0 0 0
BITMAP
ENDCHAR
STARTCHAR uni0093.uni0093
ENCODING 147
SWIDTH 3125 0
DWIDTH 5 0
BBX 0 0 0 0
BITMAP
ENDCHAR
STARTCHAR uni0094.uni0094
ENCODING 148
SWIDTH 3125 0
DWIDTH 5 0
BBX 0 0 0 0
BITMAP
ENDCHAR
STARTCHAR uni0095.uni0095
ENCODING 149
SWIDTH 3125 0
DWIDTH 5 0
BBX 0 0 0 0
BITMAP
ENDCHAR
STARTCHAR uni0096.uni0096
ENCODING 150
SWIDTH 3125 0
DWIDTH 5 0
BBX 0 0 0 0
BITMAP
ENDCHAR
STARTCHAR uni0097.uni0097
ENCODING 151
SWIDTH 3125 0
DWIDTH 5 0
BBX 0 0 0 0
BITMAP
ENDCHAR
STARTCHAR uni0098.uni0098
ENCODING 152
SWIDTH 3125 0
DWIDTH 5 0
BBX 0 0 0 0
BITMAP
ENDCHAR
STARTCHAR uni0099.uni0099
ENCODING 153
SWIDTH 3125 0
DWIDTH 5 0
BBX 0 0 0 0
BITMAP
ENDCHAR
STARTCHAR uni009A.uni009A
ENCODING 154
SWIDTH 3125 0
DWIDTH 5 0
BBX 0 0 0 0
BITMAP
ENDCHAR
STARTCHAR uni009B.uni009B
ENCODING 155
SWIDTH 3125 0
DWIDTH 5 0
BBX 0 0 0 0
BITMAP
ENDCHAR
STARTCHAR uni009C.uni009C
ENCODING 156
SWIDTH 3125 0
DWIDTH 5 0
BBX 0 0 0 0
BITMAP
ENDCHAR
STARTCHAR uni009D.uni009D
ENCODING 157
SWIDTH 3125 0
DWIDTH 5 0
BBX 0 0 0 0
BITMAP
ENDCHAR
STARTCHAR uni009E.uni009E
ENCODING 158
SWIDTH 3125 0
DWIDTH 5 0
BBX 0 0 0 0
BITMAP
ENDCHAR
STARTCHAR uni009F.uni009F
ENCODING 159
SWIDTH 3125 0
DWIDTH 5 0
BBX 0 0 0 0
BITMAP
ENDCHAR
STARTCHAR uni00A0.uni00A0
ENCODING 160
SWIDTH 3125 0
DWIDTH 5 0
BBX 0 0 0 0
BITMAP
ENDCHAR
STARTCHAR exclamdown.uni00A1
ENCODING 161
SWIDTH 3125 0
DWIDTH 5 0
BBX 0 0 0 0
BITMAP
ENDCHAR
STARTCHAR cent.uni00A2
ENCODING 162
SWIDTH 3125 0
DWIDTH 5 0
BBX 0 0 0 0
BITMAP
ENDCHAR
STARTCHAR sterling.uni00A3
ENCODING 163
SWIDTH 3125 0
DWIDTH 5 0
BBX 0 0 0 0
BITMAP
ENDCHAR
STARTCHAR currency.uni00A4
ENCODING 164
SWIDTH 3125 0
DWIDTH 5 0
BBX 0 0 0 0
BITMAP
ENDCHAR
STARTCHAR yen.uni00A5
ENCODING 165
SWIDTH 3125 0
DWIDTH 5 0
BBX 0 0 0 0
BITMAP
ENDCHAR
STARTCHAR brokenbar.uni00A6
ENCODING 166
SWIDTH 3125 0
DWIDTH 5 0
BBX 0 0 0 0
BITMAP
ENDCHAR
STARTCHAR section.uni00A7
ENCODING 167
SWIDTH 3125 0
DWIDTH 5 0
BBX 0 0 0 0
BITMAP
ENDCHAR
STARTCHAR dieresis.uni00A8
ENCODING 168
SWIDTH 3125 0
DWIDTH 5 0
BBX 0 0 0 0
BITMAP
ENDCHAR
STARTCHAR copyright.uni00A9
ENCODING 169
SWIDTH 3125 0
DWIDTH 5 0
BBX 0 0 0 0
BITMAP
ENDCHAR
STARTCHAR ordfeminine.uni00AA
ENCODING 170
SWIDTH 3125 0
DWIDTH 5 0
BBX 0 0 0 0
BITMAP
ENDCHAR
STARTCHAR guillemotleft.uni00AB
ENCODING 171
SWIDTH 3125 0
DWIDTH 5 0
BBX 0 0 0 0
BITMAP
ENDCHAR
STARTCHAR logicalnot.uni00AC
ENCODING 172
SWIDTH 3125 0
DWIDTH 5 0
BBX 5 3 0 4
BITMAP
F800
0800
0800
ENDCHAR
STARTCHAR uni00AD.uni00AD
ENCODING 173
SWIDTH 3125 0
DWIDTH 5 0
BBX 0 0 0 0
BITMAP
ENDCHAR
STARTCHAR registered.uni00AE
ENCODING 174
SWIDTH 3125 0
DWIDTH 5 0
BBX 0 0 0 0
BITMAP
ENDCHAR
STARTCHAR macron.uni00AF
ENCODING 175
SWIDTH 3125 0
DWIDTH 5 0
BBX 0 0 0 0
BITMAP
ENDCHAR
STARTCHAR degree.uni00B0
ENCODING 176
SWIDTH 3125 0
DWIDTH 5 0
BBX 0 0 0 0
BITMAP
ENDCHAR
STARTCHAR plusminus.uni00B1
ENCODING 177
SWIDTH 3125 0
DWIDTH 5 0
BBX 0 0 0 0
BITMAP
ENDCHAR
STARTCHAR uni00B2.uni00B2
ENCODING 178
SWIDTH 3125 0
DWIDTH 5 0
BBX 0 0 0 0
BITMAP
ENDCHAR
STARTCHAR uni00B3.uni00B3
ENCODING 179
SWIDTH 3125 0
DWIDTH 5 0
BBX 0 0 0 0
BITMAP
ENDCHAR
STARTCHAR acute.uni00B4
ENCODING 180
SWIDTH 3125 0
DWIDTH 5 0
BBX 0 0 0 0
BITMAP
ENDCHAR
STARTCHAR mu.uni00B5
ENCODING 181
SWIDTH 3125 0
DWIDTH 5 0
BBX 0 0 0 0
BITMAP
ENDCHAR
STARTCHAR paragraph.uni00B6
ENCODING 182
SWIDTH 3125 0
DWIDTH 5 0
BBX 0 0 0 0
BITMAP
ENDCHAR
STARTCHAR periodcentered.uni00B7
ENCODING 183
SWIDTH 3125 0
DWIDTH 5 0
BBX 1 1 2 3
BITMAP
8000
ENDCHAR
STARTCHAR cedilla.uni00B8
ENCODING 184
SWIDTH 3125 0
DWIDTH 5 0
BBX 0 0 0 0
BITMAP
ENDCHAR
STARTCHAR uni00B9.uni00B9
ENCODING 185
SWIDTH 3125 0
DWIDTH 5 0
BBX 0 0 0 0
BITMAP
ENDCHAR
STARTCHAR ordmasculine.uni00BA
ENCODING 186
SWIDTH 3125 0
DWIDTH 5 0
BBX 0 0 0 0
BITMAP
ENDCHAR
STARTCHAR guillemotright.uni00BB
ENCODING 187
SWIDTH 3125 0
DWIDTH 5 0
BBX 0 0 0 0
BITMAP
ENDCHAR
STARTCHAR onequarter.uni00BC
ENCODING 188
SWIDTH 3125 0
DWIDTH 5 0
BBX 0 0 0 0
BITMAP
ENDCHAR
STARTCHAR onehalf.uni00BD
ENCODING 189
SWIDTH 3125 0
DWIDTH 5 0
BBX 0 0 0 0
BITMAP
ENDCHAR
STARTCHAR threequarters.uni00BE
ENCODING 190
SWIDTH 3125 0
DWIDTH 5 0
BBX 0 0 0 0
BITMAP
ENDCHAR
STARTCHAR questiondown.uni00BF
ENCODING 191
SWIDTH 3125 0
DWIDTH 5 0
BBX 0 0 0 0
BITMAP
ENDCHAR
STARTCHAR Agrave.uni00C0
ENCODING 192
SWIDTH 3125 0
DWIDTH 5 0
BBX 0 0 0 0
BITMAP
ENDCHAR
STARTCHAR Aacute.uni00C1
ENCODING 193
SWIDTH 3125 0
DWIDTH 5 0
BBX 0 0 0 0
BITMAP
ENDCHAR
STARTCHAR Acircumflex.uni00C2
ENCODING 194
SWIDTH 3125 0
DWIDTH 5 0
BBX 0 0 0 0
BITMAP
ENDCHAR
STARTCHAR Atilde.uni00C3
ENCODING 195
SWIDTH 3125 0
DWIDTH 5 0
BBX 0 0 0 0
BITMAP
ENDCHAR
STARTCHAR Adieresis.uni00C4
ENCODING 196
SWIDTH 3125 0
DWIDTH 5 0
BBX 0 0 0 0
BITMAP
ENDCHAR
STARTCHAR Aring.uni00C5
ENCODING 197
SWIDTH 3125 0
DWIDTH 5 0
BBX 0 0 0 0
BITMAP
ENDCHAR
STARTCHAR AE.uni00C6
ENCODING 198
SWIDTH 3125 0
DWIDTH 5 0
BBX 0 0 0 0
BITMAP
ENDCHAR
STARTCHAR Ccedilla.uni00C7
ENCODING 199
SWIDTH 3125 0
DWIDTH 5 0
BBX 0 0 0 0
BITMAP
ENDCHAR
STARTCHAR Egrave.uni00C8
ENCODING 200
SWIDTH 3125 0
DWIDTH 5 0
BBX 0 0 0 0
BITMAP
ENDCHAR
STARTCHAR Eacute.uni00C9
ENCODING 201
SWIDTH 3125 0
DWIDTH 5 0
BBX 0 0 0 0
BITMAP
ENDCHAR
STARTCHAR Ecircumflex.uni00CA
ENCODING 202
SWIDTH 3125 0
DWIDTH 5 0
BBX 0 0 0 0
BITMAP
ENDCHAR
STARTCHAR Edieresis.uni00CB
ENCODING 203
SWIDTH 3125 0
DWIDTH 5 0
BBX 0 0 0 0
BITMAP
ENDCHAR
STARTCHAR Igrave.uni00CC
ENCODING 204
SWIDTH 3125 0
DWIDTH 5 0
BBX 0 0 0 0
BITMAP
ENDCHAR
STARTCHAR Iacute.uni00CD
ENCODING 205
SWIDTH 3125 0
DWIDTH 5 0
BBX 0 0 0 0
BITMAP
ENDCHAR
STARTCHAR Icircumflex.uni00CE
ENCODING 206
SWIDTH 3125 0
DWIDTH 5 0
BBX 0 0 0 0
BITMAP
ENDCHAR
STARTCHAR Idieresis.uni00CF
ENCODING 207
SWIDTH 3125 0
DWIDTH 5 0
BBX 0 0 0 0
BITMAP
ENDCHAR
STARTCHAR Eth.uni00D0
ENCODING 208
SWIDTH 3125 0
DWIDTH 5 0
BBX 0 0 0 0
BITMAP
ENDCHAR
STARTCHAR Ntilde.uni00D1
ENCODING 209
SWIDTH 3125 0
DWIDTH 5 0
BBX 0 0 0 0
BITMAP
ENDCHAR
STARTCHAR Ograve.uni00D2
ENCODING 210
SWIDTH 3125 0
DWIDTH 5 0
BBX 0 0 0 0
BITMAP
ENDCHAR
STARTCHAR Oacute.uni00D3
ENCODING 211
SWIDTH 3125 0
DWIDTH 5 0
BBX 0 0 0 0
BITMAP
ENDCHAR
STARTCHAR Ocircumflex.uni00D4
ENCODING 212
SWIDTH 3125 0
DWIDTH 5 0
BBX 0 0 0 0
BITMAP
ENDCHAR
STARTCHAR Otilde.uni00D5
ENCODING 213
SWIDTH 3125 0
DWIDTH 5 0
BBX 0 0 0 0
BITMAP
ENDCHAR
STARTCHAR Odieresis.uni00D6
ENCODING 214
SWIDTH 3125 0
DWIDTH 5 0
BBX 0 0 0 0
BITMAP
ENDCHAR
STARTCHAR multiply.uni00D7
ENCODING 215
SWIDTH 3125 0
DWIDTH 5 0
BBX 5 5 0 1
BITMAP
8800
5000
2000
5000
8800
ENDCHAR
STARTCHAR Oslash.uni00D8
ENCODING 216
SWIDTH 3125 0
DWIDTH 5 0
BBX 0 0 0 0
BITMAP
ENDCHAR
STARTCHAR Ugrave.uni00D9
ENCODING 217
SWIDTH 3125 0
DWIDTH 5 0
BBX 0 0 0 0
BITMAP
ENDCHAR
STARTCHAR Uacute.uni00DA
ENCODING 218
SWIDTH 3125 0
DWIDTH 5 0
BBX 0 0 0 0
BITMAP
ENDCHAR
STARTCHAR Ucircumflex.uni00DB
ENCODING 219
SWIDTH 3125 0
DWIDTH 5 0
BBX 0 0 0 0
BITMAP
ENDCHAR
STARTCHAR Udieresis.uni00DC
ENCODING 220
SWIDTH 3125 0
DWIDTH 5 0
BBX 0 0 0 0
BITMAP
ENDCHAR
STARTCHAR Yacute.uni00DD
ENCODING 221
SWIDTH 3125 0
DWIDTH 5 0
BBX 0 0 0 0
BITMAP
ENDCHAR
STARTCHAR Thorn.uni00DE
ENCODING 222
SWIDTH 3125 0
DWIDTH 5 0
BBX 0 0 0 0
BITMAP
ENDCHAR
STARTCHAR germandbls.uni00DF
ENCODING 223
SWIDTH 3125 0
DWIDTH 5 0
BBX 0 0 0 0
BITMAP
ENDCHAR
STARTCHAR agrave.uni00E0
ENCODING 224
SWIDTH 3125 0
DWIDTH 5 0
BBX 0 0 0 0
BITMAP
ENDCHAR
STARTCHAR aacute.uni00E1
ENCODING 225
SWIDTH 3125 0
DWIDTH 5 0
BBX 0 0 0 0
BITMAP
ENDCHAR
STARTCHAR acircumflex.uni00E2
ENCODING 226
SWIDTH 3125 0
DWIDTH 5 0
BBX 0 0 0 0
BITMAP
ENDCHAR
STARTCHAR atilde.uni00E3
ENCODING 227
SWIDTH 3125 0
DWIDTH 5 0
BBX 0 0 0 0
BITMAP
ENDCHAR
STARTCHAR adieresis.uni00E4
ENCODING 228
SWIDTH 3125 0
DWIDTH 5 0
BBX 0 0 0 0
BITMAP
ENDCHAR
STARTCHAR aring.uni00E5
ENCODING 229
SWIDTH 3125 0
DWIDTH 5 0
BBX 0 0 0 0
BITMAP
ENDCHAR
STARTCHAR ae.uni00E6
ENCODING 230
SWIDTH 3125 0
DWIDTH 5 0
BBX 0 0 0 0
BITMAP
ENDCHAR
STARTCHAR ccedilla.uni00E7
ENCODING 231
SWIDTH 3125 0
DWIDTH 5 0
BBX 0 0 0 0
BITMAP
ENDCHAR
STARTCHAR egrave.uni00E8
ENCODING 232
SWIDTH 3125 0
DWIDTH 5 0
BBX 0 0 0 0
BITMAP
ENDCHAR
STARTCHAR eacute.uni00E9
ENCODING 233
SWIDTH 3125 0
DWIDTH 5 0
BBX 0 0 0 0
BITMAP
ENDCHAR
STARTCHAR ecircumflex.uni00EA
ENCODING 234
SWIDTH 3125 0
DWIDTH 5 0
BBX 0 0 0 0
BITMAP
ENDCHAR
STARTCHAR edieresis.uni00EB
ENCODING 235
SWIDTH 3125 0
DWIDTH 5 0
BBX 0 0 0 0
BITMAP
ENDCHAR
STARTCHAR igrave.uni00EC
ENCODING 236
SWIDTH 3125 0
DWIDTH 5 0
BBX 0 0 0 0
BITMAP
ENDCHAR
STARTCHAR iacute.uni00ED
ENCODING 237
SWIDTH 3125 0
DWIDTH 5 0
BBX 0 0 0 0
BITMAP
ENDCHAR
STARTCHAR icircumflex.uni00EE
ENCODING 238
SWIDTH 3125 0
DWIDTH 5 0
BBX 0 0 0 0
BITMAP
ENDCHAR
STARTCHAR idieresis.uni00EF
ENCODING 239
SWIDTH 3125 0
DWIDTH 5 0
BBX 0 0 0 0
BITMAP
ENDCHAR
STARTCHAR eth.uni00F0
ENCODING 240
SWIDTH 3125 0
DWIDTH 5 0
BBX 0 0 0 0
BITMAP
ENDCHAR
STARTCHAR ntilde.uni00F1
ENCODING 241
SWIDTH 3125 0
DWIDTH 5 0
BBX 0 0 0 0
BITMAP
ENDCHAR
STARTCHAR ograve.uni00F2
ENCODING 242
SWIDTH 3125 0
DWIDTH 5 0
BBX 0 0 0 0
BITMAP
ENDCHAR
STARTCHAR oacute.uni00F3
ENCODING 243
SWIDTH 3125 0
DWIDTH 5 0
BBX 0 0 0 0
BITMAP
ENDCHAR
STARTCHAR ocircumflex.uni00F4
ENCODING 244
SWIDTH 3125 0
DWIDTH 5 0
BBX 0 0 0 0
BITMAP
ENDCHAR
STARTCHAR otilde.uni00F5
ENCODING 245
SWIDTH 3125 0
DWIDTH 5 0
BBX 0 0 0 0
BITMAP
ENDCHAR
STARTCHAR odieresis.uni00F6
ENCODING 246
SWIDTH 3125 0
DWIDTH 5 0
BBX 0 0 0 0
BITMAP
ENDCHAR
STARTCHAR divide.uni00F7
ENCODING 247
SWIDTH 3125 0
DWIDTH 5 0
BBX 0 0 0 0
BITMAP
ENDCHAR
STARTCHAR oslash.uni00F8
ENCODING 248
SWIDTH 3125 0
DWIDTH 5 0
BBX 0 0 0 0
BITMAP
ENDCHAR
STARTCHAR ugrave.uni00F9
ENCODING 249
SWIDTH 3125 0
DWIDTH 5 0
BBX 0 0 0 0
BITMAP
ENDCHAR
STARTCHAR uacute.uni00FA
ENCODING 250
SWIDTH 3125 0
DWIDTH 5 0
BBX 0 0 0 0
BITMAP
ENDCHAR
STARTCHAR ucircumflex.uni00FB
ENCODING 251
SWIDTH 3125 0
DWIDTH 5 0
BBX 0 0 0 0
BITMAP
ENDCHAR
STARTCHAR udieresis.uni00FC
ENCODING 252
SWIDTH 3125 0
DWIDTH 5 0
BBX 0 0 0 0
BITMAP
ENDCHAR
STARTCHAR yacute.uni00FD
ENCODING 253
SWIDTH 3125 0
DWIDTH 5 0
BBX 0 0 0 0
BITMAP
ENDCHAR
STARTCHAR thorn.uni00FE
ENCODING 254
SWIDTH 3125 0
DWIDTH 5 0
BBX 0 0 0 0
BITMAP
ENDCHAR
STARTCHAR ydieresis.uni00FF
ENCODING 255
SWIDTH 3125 0
DWIDTH 5 0
BBX 0 0 0 0
BITMAP
ENDCHAR
ENDFONT
